<?xml version="1.0" encoding="UTF-8"?>
<svg width="580px" height="387px" viewBox="0 0 580 387" version="1.1" xmlns="http://www.w3.org/2000/svg" xmlns:xlink="http://www.w3.org/1999/xlink">
    <!-- Generator: Sketch 58 (84663) - https://sketch.com -->
    <title>jetcity-page</title>
    <desc>Created with Sketch.</desc>
    <defs>
        <polygon id="path-1" points="0.0910344828 0.0551724138 198.846897 0.0551724138 198.846897 80.1944828 0.0910344828 80.1944828"></polygon>
    </defs>
    <g id="jetcity-page" stroke="none" stroke-width="1" fill="none" fill-rule="evenodd">
        <g id="JetCityComics-logo-white_RGB" transform="translate(190.000000, 104.000000)">
            <path d="M7.96413793,137.176552 C7.96413793,141.133793 7.89655172,142.815172 4.93241379,142.815172 L0,142.794483 L0,154.81931 L7.60137931,154.84975 C12.44,154.84975 15.1075862,154.942069 17.6165517,149.353103 C19.3393103,145.604138 19.3393103,141.386207 19.3393103,135.373793 L19.3393103,80.4027586 L7.96413793,83.4634483 L7.96413793,137.176552" id="Fill-1" fill="#FFFFFF"></path>
            <polyline id="Fill-2" fill="#FFFFFF" points="27.377931 154.812414 56.7282759 154.496552 56.7282759 139.597241 40.4455172 140.517241 40.4455172 121.264828 55.7613793 119.455172 55.7613793 104.598621 40.4455172 107.111724 40.4455172 88.7655172 56.7282759 85.1296552 56.7282759 70.2303448 27.377931 78.1337931 27.377931 154.812414"></polyline>
            <polyline id="Fill-3" fill="#FFFFFF" points="59.7586207 84.3324138 72.8689655 81.3944828 72.8689655 154.332414 90.577931 154.144828 90.577931 77.4289655 106.435862 73.88 106.435862 56.8468966 59.7586207 69.4110345 59.7586207 84.3324138"></polyline>
            <path d="M129.204138,129.670345 C129.204138,134.26069 129.204138,138.857931 125.470345,138.535172 C121.903448,138.233103 121.478621,134.8 121.478621,128.685517 L121.478621,81.0124138 C121.478621,76.4013793 121.834483,72.4565517 125.201379,73.7006897 C128.802759,75.0358621 129.204138,78.3406897 129.204138,83.4634483 L129.204138,95.0151724 L139.868966,98.017931 L139.868966,87.5144828 C139.868966,82.0193103 139.684138,74.697931 136.550345,68.2689655 C133.645517,62.1696552 129.604138,59.217931 125.470345,57.3862069 C121.975172,55.84 115.473103,53.5213793 111.424828,60.9489655 C109.068966,65.2951724 108.670345,71.1572414 108.670345,78.3268966 L108.670345,128.211034 C108.670345,144.122759 111.424828,154.346207 125.201379,154.547586 C138.22069,154.742069 140.106207,144.662069 140.106207,127.924138 L140.106207,120.057931 L129.204138,118.118621 L129.204138,129.670345" id="Fill-4" fill="#FFFFFF"></path>
            <polyline id="Fill-5" fill="#FFFFFF" points="145.804138 153.764138 155.132414 153.957241 155.132414 72.0413793 145.804138 67.982069 145.804138 153.764138"></polyline>
            <polyline id="Fill-6" fill="#FFFFFF" points="158.408276 87.5006897 165.209655 89.9724138 165.209655 154.151724 172.97931 154.310345 172.97931 92.7944828 178.85931 94.9282759 178.85931 82.2772414 158.408276 73.3558621 158.408276 87.5006897"></polyline>
            <polyline id="Fill-7" fill="#FFFFFF" points="192.856552 88.4786207 189.874483 116.997241 186.78069 85.8344828 180.335172 83.0248276 186.78069 130.337931 186.78069 154.590345 192.656552 154.711724 192.656552 131.314483 198.446897 90.9131034 192.856552 88.4786207"></polyline>
            <path d="M31.0413793,173.828966 L31.0413793,165.653793 C31.0413793,164.61931 31.7737931,164.095172 33.4096552,164.095172 L50.1655172,164.095172 L50.1655172,160.444138 L33.4331034,160.444138 C28.9048276,160.444138 27.2910345,162.205517 27.2910345,165.502069 L27.2910345,173.97931 C27.2910345,177.277241 28.9048276,179.037241 33.4331034,179.037241 L50.2110345,179.037241 L50.2110345,175.387586 L33.4096552,175.387586 C31.7737931,175.387586 31.0413793,174.863448 31.0413793,173.828966" id="Fill-8" fill="#FFFFFF"></path>
            <path d="M72.6648276,173.828966 C72.6648276,174.863448 71.9324138,175.387586 70.297931,175.387586 L59.6055172,175.387586 C57.9696552,175.387586 57.2372414,174.863448 57.2372414,173.828966 L57.2372414,165.653793 C57.2372414,164.61931 57.9696552,164.095172 59.6055172,164.095172 L70.297931,164.095172 C71.9324138,164.095172 72.6648276,164.61931 72.6648276,165.653793 L72.6648276,173.828966 Z M70.2717241,160.444138 L59.6289655,160.444138 C55.1006897,160.444138 53.4910345,162.205517 53.4910345,165.502069 L53.4910345,173.97931 C53.4910345,177.277241 55.1006897,179.037241 59.6289655,179.037241 L70.2717241,179.037241 C74.8013793,179.037241 76.4110345,177.277241 76.4110345,173.97931 L76.4110345,165.502069 C76.4110345,162.205517 74.8013793,160.444138 70.2717241,160.444138 L70.2717241,160.444138 Z" id="Fill-9" fill="#FFFFFF"></path>
            <path d="M110.987586,160.194483 C110.405517,160.194483 109.78069,160.394483 109.348966,160.875862 L96.4937931,174.914483 L83.6386207,160.875862 C83.1862069,160.366897 82.582069,160.194483 82.0041379,160.194483 C81.0951724,160.194483 80.2689655,160.768276 80.2689655,161.953103 L80.2689655,179.037241 L83.9144828,179.037241 L83.9144828,166.435862 L95.1848276,178.764138 C95.542069,179.137931 95.9655172,179.310345 96.4937931,179.310345 C97.022069,179.310345 97.4524138,179.137931 97.8027586,178.764138 L109.075862,166.435862 L109.075862,179.037241 L112.722759,179.037241 L112.722759,161.953103 C112.722759,160.768276 111.892414,160.194483 110.987586,160.194483" id="Fill-10" fill="#FFFFFF"></path>
            <polygon id="Fill-11" fill="#FFFFFF" points="116.881379 179.037241 120.531034 179.037241 120.531034 160.444138 116.881379 160.444138"></polygon>
            <path d="M128.331034,173.828966 L128.331034,165.653793 C128.331034,164.61931 129.064828,164.095172 130.69931,164.095172 L147.452414,164.095172 L147.452414,160.444138 L130.724138,160.444138 C126.194483,160.444138 124.582069,162.205517 124.582069,165.502069 L124.582069,173.97931 C124.582069,177.277241 126.194483,179.037241 130.724138,179.037241 L147.506207,179.037241 L147.506207,175.387586 L130.69931,175.387586 C129.064828,175.387586 128.331034,174.863448 128.331034,173.828966" id="Fill-12" fill="#FFFFFF"></path>
            <path d="M166.85931,166.708966 L156.013793,166.708966 C154.884138,166.708966 154.557241,166.478621 154.557241,165.875862 L154.557241,164.769655 C154.557241,164.295172 154.884138,164.095172 155.994483,164.095172 L172.242759,164.095172 L172.242759,160.444138 L156.115862,160.444138 C152.565517,160.444138 150.78069,161.630345 150.78069,164.015172 L150.78069,166.358621 C150.78069,169.022069 152.565517,170.358621 156.166897,170.358621 L166.884138,170.358621 C168.518621,170.358621 169.248276,170.884138 169.248276,171.918621 L169.248276,173.828966 C169.248276,174.863448 168.518621,175.387586 166.884138,175.387586 L150.78069,175.387586 L150.78069,179.037241 L166.85931,179.037241 C171.388966,179.037241 172.998621,177.277241 172.998621,173.97931 L172.998621,171.766897 C172.998621,168.470345 171.388966,166.708966 166.85931,166.708966" id="Fill-13" fill="#FFFFFF"></path>
            <path d="M139.891034,12.6951724 C143.562759,11.2413793 147.70069,13.0331034 149.183448,16.6758621 L150.085517,16.6758621 C150.02069,16.4634483 149.973793,16.2468966 149.891034,16.0358621 C148.288276,11.9917241 143.710345,9.99034483 139.651034,11.5958621 C137.336552,12.5158621 135.714483,14.4151724 135.044138,16.6331034 L135.933793,16.6331034 C136.646897,14.9006897 138.013793,13.4386207 139.891034,12.6951724" id="Fill-14" fill="#FFFFFF"></path>
            <g id="Group-18">
                <mask id="mask-2" fill="white">
                    <use xlink:href="#path-1"></use>
                </mask>
                <g id="Clip-16"></g>
                <path d="M191.64,33.0248276 C193.292414,34.0993103 193.809655,36.1503448 193.091034,37.9034483 L193.471724,38.4027586 C194.58069,36.3917241 194.024828,33.8331034 192.070345,32.5586207 C191.001379,31.8662069 189.761379,31.7282759 188.615172,32.0124138 L188.93931,32.4372414 C189.851034,32.3186207 190.806897,32.4827586 191.64,33.0248276" id="Fill-15" fill="#FFFFFF" mask="url(#mask-2)"></path>
                <path d="M188.651034,37.9696552 C185.793103,39.9075862 182.573793,40.4317241 182.437241,40.4524138 L181.857931,40.542069 L182.188966,40.0593103 C185.409655,35.3724138 188.191724,35.1337931 188.715862,35.1337931 C188.783448,35.1337931 188.817931,35.137931 188.817931,35.137931 C188.855172,35.142069 188.983448,35.16 189.143448,35.1972414 C188.408276,35.2951724 187.833103,35.8951724 187.833103,36.6524138 C187.833103,37.2344828 188.171034,37.72 188.651034,37.9696552 Z M178.753103,35.6758621 C175.190345,38 171.161379,38.6510345 171.12,38.657931 L170.537931,38.7475862 L170.871724,38.2634483 C174.926897,32.3558621 178.423448,32.0565517 179.081379,32.0565517 C179.164138,32.0565517 179.206897,32.0606897 179.206897,32.0606897 C178.288276,32.1917241 177.58069,32.9724138 177.58069,33.9310345 C177.58069,34.7172414 178.064828,35.3917241 178.753103,35.6758621 Z M161.177931,30.1448276 C160.045517,29.8427586 158.16,28.8868966 158.16,28.8868966 L159.013793,28.1544828 C159.013793,28.1544828 160.943448,26.6317241 160.444138,24.9365517 L163.052414,23.7668966 L163.944828,23.377931 C165.413793,22.6675862 167.031724,22.0551724 168.615172,21.4386207 C171.755862,20.2234483 174.884138,18.96 178.882759,18.622069 C179.270345,18.5944828 179.086897,18.5862069 179.462069,18.5793103 L179.577931,19.4413793 C179.93931,19.5131034 180.444138,19.6993103 180.784828,19.6137931 L182.401379,19.2193103 C183.424828,19.3158621 184.371034,19.4841379 185.136552,19.8317241 C185.190345,19.862069 185.246897,19.8937931 185.303448,19.9268966 C185.317241,19.9337931 185.326897,19.9434483 185.33931,19.9489655 C185.628966,20.1241379 185.931034,20.3462069 186.118621,20.5834483 C186.213793,20.7489655 186.264828,20.9365517 186.278621,21.1241379 C186.205517,21.4262069 185.824828,21.7255172 184.864828,21.9696552 C184.766897,21.9944828 184.686897,22.0110345 184.591724,22.0344828 C183.884138,22.1324138 183.198621,22.2317241 182.484138,22.4082759 C182.333793,22.4455172 182.188966,22.4855172 182.041379,22.5227586 C181.612414,22.6124138 181.186207,22.7103448 180.762759,22.8110345 C180.154483,22.9241379 179.61931,23.04 179.088276,23.2262069 C171.433103,25.2358621 164.551724,28.4965517 161.870345,29.8524138 L161.177931,30.1448276 Z M149.37931,30.8841379 L148.747586,30.982069 L149.110345,30.4551724 C153.456552,24.1310345 157.197241,23.7213793 157.993103,23.7103448 C157.171034,23.9172414 156.561379,24.6606897 156.561379,25.5434483 C156.561379,26.4482759 157.198621,27.2041379 158.049655,27.3889655 C154.097931,30.1268966 149.426207,30.8772414 149.37931,30.8841379 Z M148.30069,36.5103448 C148.171034,36.6248276 139.114483,40.7696552 139.114483,40.7696552 C138.950345,40.5255172 138.838621,40.3103448 138.753103,40.1006897 C138.710345,39.9931034 138.666207,39.8937931 138.655172,39.8427586 C138.649655,39.8068966 138.655172,39.7710345 138.645517,39.7351724 C138.612414,39.5917241 138.601379,39.4551724 138.601379,39.3255172 C138.601379,39.2110345 138.616552,39.0965517 138.641379,38.9958621 C138.645517,38.9889655 138.641379,38.9806897 138.645517,38.9806897 C138.703448,38.7089655 138.816552,38.4841379 138.964138,38.2993103 C139.155862,38.0537931 139.377931,37.8675862 139.517241,37.7517241 C139.657931,37.622069 140.365517,37.1572414 141.241379,36.5875862 C141.355862,36.5172414 141.471724,36.4455172 141.593103,36.3655172 C141.644138,36.3296552 141.695172,36.2868966 141.758621,36.257931 C143.44,35.1806897 145.444138,33.9241379 145.444138,33.9241379 C147.405517,34.7558621 148.16,35.3682759 148.411034,35.7834483 C148.431724,35.8124138 148.468966,35.8344828 148.489655,35.8703448 C148.495172,35.8772414 148.495172,35.92 148.495172,35.9627586 C148.591724,36.2868966 148.358621,36.4593103 148.30069,36.5103448 Z M67.5655172,16.3958621 C68.1255172,16.3958621 68.6634483,16.3958621 69.1875862,16.3655172 L67.3131034,29.3337931 L67.5655172,16.3958621 Z M64.7489655,27.622069 L64.0441379,27.6165517 L62.8455172,16.1806897 C63.52,16.2441379 64.2262069,16.3006897 64.9682759,16.3448276 L64.7489655,27.622069 Z M142.342069,21.4055172 C138.131034,24.2786207 133.201379,25.0744828 133.151724,25.0827586 L132.474483,25.1875862 L132.862069,24.622069 C137.594483,17.737931 141.65931,17.3903448 142.427586,17.3903448 C142.518621,17.3903448 142.565517,17.3944828 142.565517,17.3944828 C142.593103,17.3972414 142.656552,17.4055172 142.733793,17.4193103 C141.714483,17.5434483 140.918621,18.4 140.918621,19.4565517 C140.918621,20.3724138 141.52,21.1351724 142.342069,21.4055172 Z M159.776552,39.4689655 L192.895172,42.7393103 C192.932414,42.7434483 192.955862,42.7517241 192.995862,42.7558621 C193.531034,42.8082759 194.001379,42.8524138 194.445517,42.8924138 L195.422069,42.9889655 C195.456552,42.9903448 195.489655,42.9862069 195.524138,42.9862069 C197.211034,43.1268966 197.995862,43.1572414 197.995862,43.1572414 C199.565517,42.1889655 198.613793,41.2758621 197.931034,40.9668966 C197.914483,40.9544828 197.89931,40.9503448 197.882759,40.9351724 C197.852414,40.9268966 197.82069,40.9186207 197.791724,40.9103448 C197.775172,40.9034483 197.753103,40.8937931 197.736552,40.8882759 C197.33931,40.7668966 196.405517,40.5227586 195.721379,40.3448276 C193.742069,39.7972414 191.66069,39.2013793 189.776552,38.6565517 L189.85931,38.5862069 C189.85931,38.5862069 191.606897,37.2137931 190.833103,35.777931 C190.645517,35.4331034 190.415172,35.2027586 190.173793,35.0358621 C190.173793,35.0358621 190.164138,35.0303448 190.16,35.0303448 C190.121379,35.0013793 190.078621,34.9862069 190.034483,34.9586207 C189.906207,34.8786207 189.744828,34.8206897 189.551724,34.777931 C189.453793,34.7558621 189.355862,34.7351724 189.262069,34.7282759 C189.204138,34.7213793 189.14069,34.7131034 189.075862,34.7131034 C189.04,34.7131034 189.011034,34.7131034 188.975172,34.7131034 C188.58069,34.7131034 188.129655,34.7558621 187.634483,34.857931 C185.822069,35.2234483 184.976552,35.942069 183.46069,36.6096552 C183.066207,36.5531034 181.88,36.4151724 181.522759,36.3158621 C181.335172,36.2648276 181.104828,36.1862069 180.951724,36.0648276 C181.522759,35.3310345 182.071724,34.217931 181.449655,33.0758621 C180.737931,31.76 179.582069,31.5958621 178.882759,31.6248276 C178.845517,31.6248276 178.813793,31.6096552 178.772414,31.6096552 C177.972414,31.64 177.548966,31.8331034 176.886897,32.0772414 C175.537931,32.5793103 174.194483,33.1696552 173.106207,33.7213793 L170.771034,33.0110345 L173.688276,31.64 L175.914483,30.5531034 L176.703448,30.1737931 C177.790345,29.5531034 178.891034,28.942069 179.98069,28.3186207 C180.064828,28.3310345 180.147586,28.3282759 180.231724,28.3448276 C182.793103,28.8289655 184.572414,31.0275862 184.646897,33.5255172 L185.332414,33.9268966 C185.57931,31.0965517 183.797241,28.4827586 181.057931,27.7006897 C181.096552,27.6772414 181.137931,27.6537931 181.177931,27.6303448 L181.769655,27.2772414 C182.52,26.8124138 183.255172,26.3296552 183.944828,25.8055172 C185.22069,24.8358621 186.532414,23.8868966 187.204138,22.2648276 C187.606897,21.2951724 186.933793,20.2096552 186.296552,19.7793103 C185.318621,19.1324138 184.013793,18.8234483 182.557241,18.657931 L181.748966,18.377931 C181.391724,18.2413793 181.082759,18.0772414 180.726897,18.0331034 C179.811034,17.9255172 178.84,18.0772414 178.117241,18.1627586 C176.277241,18.4 174.675862,18.8303448 173.055172,19.3048276 C170.002759,20.2068966 167.267586,21.4524138 164.441379,22.6868966 C163.023448,19.0096552 158.936552,17.0924138 155.193103,18.4275862 C153.177931,19.1462069 151.704828,20.6758621 150.951724,22.5158621 L151.787586,22.5448276 C152.535172,21.1544828 153.769655,20.0234483 155.37931,19.4482759 C158.668966,18.2772414 162.228966,19.8786207 163.637241,23.0041379 L163.693793,23.0055172 L163.22069,23.1848276 C162.264828,23.6372414 161.297931,24.1324138 160.271724,24.52 C159.270345,22.6593103 157.282759,23.2193103 157.282759,23.2193103 L157.296552,23.2344828 C156.522759,23.3572414 155.822069,23.702069 155.177931,24.0027586 C154.154483,24.4772414 153.193103,25.0662069 152.41931,25.6689655 C152.408276,25.6758621 152.397241,25.6827586 152.387586,25.6827586 C151.971034,26.0068966 151.662069,25.7558621 151.662069,25.7558621 C149.388966,24.8648276 146.968276,23.9668966 144.653793,23.0193103 C144.248276,22.8524138 143.773793,22.737931 143.451034,22.5075862 C143.404138,22.4731034 143.412414,22.3227586 143.473103,22.2648276 C143.493793,22.2427586 143.511724,22.2206897 143.533793,22.2 C143.86069,21.9268966 145.793103,20.1958621 144.81931,18.3917241 C143.918621,16.7324138 142.302069,16.8910345 141.813793,16.9848276 C141.776552,16.9848276 141.742069,16.977931 141.708966,16.977931 C141.177931,17.0206897 140.206897,17.2358621 139.765517,17.4510345 L136.478621,19.3986207 C136.364138,19.4689655 136.209655,19.3696552 136.122759,19.3337931 L121.946207,13.622069 C116.168276,11.342069 111.468966,9.07310345 108.510345,8.30482759 C107.994483,8.16965517 107.531034,8.08137931 107.124138,8.04551724 C106.884138,8.00413793 106.634483,7.97931034 106.33931,8.01241379 C106.306207,8.01931034 106.155862,8.08413793 106.102069,8.09793103 C106.095172,8.10068966 106.089655,8.1062069 106.082759,8.10896552 C105.922759,8.15172414 105.777931,8.21103448 105.653793,8.29241379 C104.084138,9.32 105.113103,11.2413793 109.573793,14.1862069 C110.42069,14.7889655 111.325517,15.3296552 112.25931,15.8427586 L144.848276,33.5862069 L140.951724,36.3006897 C140.846897,36.3724138 140.606897,36.5448276 140.308966,36.7544828 L140.071724,36.92 L140.071724,36.9117241 C139.704828,37.1696552 139.295172,37.4496552 138.950345,37.6744828 L125.013793,34.3682759 C125.082759,33.342069 125.125517,32.12 125.186207,31.0068966 C125.271724,29.3337931 124.048276,27.5448276 122.615172,29.3255172 C121.525517,30.6827586 121.05931,32.4648276 120.857931,33.5062069 L120.17931,36.3655172 C120.164138,36.5958621 120.092414,36.8468966 120.125517,37.1489655 C120.238621,38.2041379 120.537931,38.582069 121.704828,38.8234483 C123.026207,39.0965517 123.842759,37.8965517 123.990345,37.5517241 L131.106207,39.9075862 L112.333793,45.5406897 L102.502069,48.5710345 L102.391724,33.3558621 L94.6786207,31.9268966 L91.0082759,34.1613793 L91.0082759,52.142069 L87.5351724,53.1972414 L87.6041379,24.7793103 L73.9613793,22.4303448 L70.297931,24.5986207 L70.297931,58.6137931 L69.6041379,58.8289655 L67.8731034,41.9324138 L67.8951724,34.1682759 L70.4855172,16.28 C72.0427586,16.1503448 73.3972414,15.9351724 74.377931,15.6482759 L74.382069,15.1668966 C73.9834483,15.0303448 73.5048276,14.9089655 72.9875862,14.7931034 L73.5517241,13.9172414 L73.5586207,13.9172414 C74.5655172,12.537931 74.6910345,11.7972414 74.6910345,11.7972414 C74.697931,11.3958621 74.1944828,11.0717241 73.5365517,11 L73.5627586,10.9503448 L72.1627586,10.9282759 C71.4896552,10.2744828 70.3089655,9.74344828 68.8317241,9.44137931 L68.8427586,8.65793103 L69.6289655,8.19862069 L69.6289655,7.83172414 L68.9765517,7.82482759 L68.9834483,7.04275862 L67.097931,6.99862069 L67.1075862,6.25793103 L66.9848276,6.25793103 L66.5903448,0.0165517241 L65.9765517,6.23724138 L65.8427586,6.23724138 L65.8331034,6.97793103 L63.8965517,6.94068966 L63.8868966,7.72413793 L63.2289655,7.71034483 L63.222069,8.07724138 L63.9834483,8.56413793 L63.9903448,8.56413793 L63.9724138,9.34758621 C62.4827586,9.58482759 61.2758621,10.0731034 60.5751724,10.7062069 L59.1848276,10.6758621 L59.2137931,10.7131034 C58.5517241,10.7627586 58.0317241,11.0717241 58.0248276,11.4744828 C58.0386207,11.5531034 58.0758621,11.6537931 58.1186207,11.7682759 C58.1186207,11.7751724 58.1186207,11.7834483 58.1324138,11.7903448 C58.2827586,12.1848276 58.5558621,12.7103448 58.7324138,13.0331034 L58.7213793,13.0331034 L58.857931,13.262069 C58.8758621,13.2924138 58.8896552,13.3268966 58.8896552,13.3268966 L58.8937931,13.3268966 L59.64,14.5765517 C59.2206897,14.6717241 58.8317241,14.7572414 58.4951724,14.857931 L58.4772414,15.3393103 C59.2786207,15.6110345 60.3406897,15.8358621 61.5475862,16.0137931 L63.4551724,34.0813793 L63.1751724,41.8468966 L62.08,49.5834483 L53.0317241,47.9668966 L49.36,50.1310345 L49.36,65.0868966 L45.0468966,66.4593103 L45.0468966,61.1351724 L38.0675862,59.8358621 L35.9089655,61.1351724 L35.9089655,69.2675862 L31.7393103,70.6331034 L31.7393103,60.92 L23.7544828,59.4827586 L21.3103448,60.92 L21.3103448,73.8662069 L0.0910344828,80.1944828 L141.827586,42.9972414 C143.892414,43.4137931 145.88,44.0662069 148.186207,44.3682759 C148.252414,44.3834483 148.368276,44.4041379 148.462069,44.4551724 C148.462069,44.5186207 148.453793,44.5710345 148.451034,44.6344828 C148.354483,46.1282759 149.517241,47.622069 151.075862,46.0275862 C151.435862,45.662069 151.662069,45.3241379 151.813793,45.0303448 L152.968276,40.5324138 L159.776552,39.4689655 L159.776552,39.4689655 Z" id="Fill-17" fill="#FFFFFF" mask="url(#mask-2)"></path>
            </g>
        </g>
    </g>
</svg>